<svg xmlns="http://www.w3.org/2000/svg" xmlns:xlink="http://www.w3.org/1999/xlink" id="Capa_1" x="0px" y="0px" viewBox="0 0 480 480" style="enable-background:new 0 0 480 480;" xml:space="preserve">
<g>
	
		<linearGradient id="SVGID_1_" gradientUnits="userSpaceOnUse" x1="-26.875" y1="558.395" x2="-26.875" y2="620.097" gradientTransform="matrix(8 0 0 -8 455 4941)">
		<stop offset="0" style="stop-color:#006DF0"></stop>
		<stop offset="1" style="stop-color:#00E7F0"></stop>
	</linearGradient>
	<path style="fill:url(#SVGID_1_);" d="M352,0H128c-22.08,0.026-39.974,17.92-40,40v400c0.026,22.08,17.92,39.974,40,40h224   c22.08-0.026,39.974-17.92,40-40V40C391.974,17.92,374.08,0.026,352,0z M104,64h272v320H104V64z M376,440c0,13.255-10.745,24-24,24   H128c-13.255,0-24-10.745-24-24v-40h272V440z M104,48v-8c0-13.255,10.745-24,24-24h224c13.255,0,24,10.745,24,24v8H104z"></path>
	
		<linearGradient id="SVGID_2_" gradientUnits="userSpaceOnUse" x1="-26.875" y1="558.395" x2="-26.875" y2="620.097" gradientTransform="matrix(8 0 0 -8 455 4941)">
		<stop offset="0" style="stop-color:#006DF0"></stop>
		<stop offset="1" style="stop-color:#00E7F0"></stop>
	</linearGradient>
	<path style="fill:url(#SVGID_2_);" d="M240,456c13.255,0,24-10.745,24-24s-10.745-24-24-24c-13.255,0-24,10.745-24,24   S226.745,456,240,456z M240,424c4.418,0,8,3.582,8,8s-3.582,8-8,8s-8-3.582-8-8S235.582,424,240,424z"></path>
	
		<linearGradient id="SVGID_3_" gradientUnits="userSpaceOnUse" x1="-26.875" y1="558.395" x2="-26.875" y2="620.097" gradientTransform="matrix(8 0 0 -8 455 4941)">
		<stop offset="0" style="stop-color:#006DF0"></stop>
		<stop offset="1" style="stop-color:#00E7F0"></stop>
	</linearGradient>
	<path style="fill:url(#SVGID_3_);" d="M248,24h-16c-4.418,0-8,3.582-8,8s3.582,8,8,8h16c4.418,0,8-3.582,8-8S252.418,24,248,24z"></path>
</g>
<g>
</g>
<g>
</g>
<g>
</g>
<g>
</g>
<g>
</g>
<g>
</g>
<g>
</g>
<g>
</g>
<g>
</g>
<g>
</g>
<g>
</g>
<g>
</g>
<g>
</g>
<g>
</g>
<g>
</g>
</svg>